<mxfile host="app.diagrams.net" modified="2023-12-14T17:55:45.467Z" agent="Mozilla/5.0 (Windows NT 10.0; Win64; x64) AppleWebKit/537.36 (KHTML, like Gecko) Chrome/120.0.0.0 Safari/537.36" etag="hlGBS0yS8acXSUnqW6bA" version="22.1.9" type="device">
  <diagram name="Page-1" id="aRPNzkdNTN83VisEcWll">
    <mxGraphModel dx="1290" dy="565" grid="1" gridSize="10" guides="1" tooltips="1" connect="1" arrows="1" fold="1" page="1" pageScale="1" pageWidth="827" pageHeight="1169" math="0" shadow="0">
      <root>
        <mxCell id="0" />
        <mxCell id="1" parent="0" />
        <mxCell id="XiJjaWaKzmanLeV9Q8G3-2" value="C8051F340&lt;br&gt;Microcontroller&lt;br&gt;&lt;br&gt;PROCESSING AND &lt;br&gt;VOTE COUNT" style="rounded=0;whiteSpace=wrap;html=1;" parent="1" vertex="1">
          <mxGeometry x="400" y="190" width="200" height="390" as="geometry" />
        </mxCell>
        <mxCell id="XiJjaWaKzmanLeV9Q8G3-6" value="SWITCH 2" style="rounded=1;whiteSpace=wrap;html=1;" parent="1" vertex="1">
          <mxGeometry x="200" y="350" width="80" height="40" as="geometry" />
        </mxCell>
        <mxCell id="XiJjaWaKzmanLeV9Q8G3-7" value="SWITCH3" style="rounded=1;whiteSpace=wrap;html=1;" parent="1" vertex="1">
          <mxGeometry x="200" y="420" width="80" height="40" as="geometry" />
        </mxCell>
        <mxCell id="XiJjaWaKzmanLeV9Q8G3-8" value="TOTAL" style="rounded=1;whiteSpace=wrap;html=1;" parent="1" vertex="1">
          <mxGeometry x="200" y="490" width="80" height="40" as="geometry" />
        </mxCell>
        <mxCell id="XiJjaWaKzmanLeV9Q8G3-11" value="SWITCH 1" style="rounded=1;whiteSpace=wrap;html=1;" parent="1" vertex="1">
          <mxGeometry x="200" y="280" width="80" height="40" as="geometry" />
        </mxCell>
        <mxCell id="XiJjaWaKzmanLeV9Q8G3-15" style="edgeStyle=orthogonalEdgeStyle;rounded=0;orthogonalLoop=1;jettySize=auto;html=1;exitX=1;exitY=0.5;exitDx=0;exitDy=0;entryX=0.004;entryY=0.822;entryDx=0;entryDy=0;entryPerimeter=0;" parent="1" source="XiJjaWaKzmanLeV9Q8G3-8" target="XiJjaWaKzmanLeV9Q8G3-2" edge="1">
          <mxGeometry relative="1" as="geometry" />
        </mxCell>
        <mxCell id="XiJjaWaKzmanLeV9Q8G3-17" style="edgeStyle=orthogonalEdgeStyle;rounded=0;orthogonalLoop=1;jettySize=auto;html=1;exitX=0.25;exitY=1;exitDx=0;exitDy=0;entryX=1;entryY=0.235;entryDx=0;entryDy=0;entryPerimeter=0;" parent="1" edge="1">
          <mxGeometry relative="1" as="geometry">
            <mxPoint x="600" y="281.65" as="targetPoint" />
            <mxPoint x="690" y="110" as="sourcePoint" />
            <Array as="points">
              <mxPoint x="690" y="282" />
            </Array>
          </mxGeometry>
        </mxCell>
        <mxCell id="XiJjaWaKzmanLeV9Q8G3-16" value="LCD Display" style="rounded=1;whiteSpace=wrap;html=1;" parent="1" vertex="1">
          <mxGeometry x="560" y="20" width="240" height="90" as="geometry" />
        </mxCell>
        <mxCell id="Dj6OytFTwjMx882FigHW-4" style="edgeStyle=orthogonalEdgeStyle;rounded=0;orthogonalLoop=1;jettySize=auto;html=1;exitX=1;exitY=0.5;exitDx=0;exitDy=0;" edge="1" parent="1">
          <mxGeometry relative="1" as="geometry">
            <mxPoint x="280" y="439.25" as="sourcePoint" />
            <mxPoint x="390" y="440" as="targetPoint" />
          </mxGeometry>
        </mxCell>
        <mxCell id="Dj6OytFTwjMx882FigHW-5" style="edgeStyle=orthogonalEdgeStyle;rounded=0;orthogonalLoop=1;jettySize=auto;html=1;exitX=1;exitY=0.5;exitDx=0;exitDy=0;" edge="1" parent="1">
          <mxGeometry relative="1" as="geometry">
            <mxPoint x="280" y="369.38" as="sourcePoint" />
            <mxPoint x="390" y="370.13" as="targetPoint" />
          </mxGeometry>
        </mxCell>
        <mxCell id="Dj6OytFTwjMx882FigHW-6" style="edgeStyle=orthogonalEdgeStyle;rounded=0;orthogonalLoop=1;jettySize=auto;html=1;exitX=1;exitY=0.5;exitDx=0;exitDy=0;" edge="1" parent="1">
          <mxGeometry relative="1" as="geometry">
            <mxPoint x="280" y="299.39" as="sourcePoint" />
            <mxPoint x="390" y="300.14" as="targetPoint" />
          </mxGeometry>
        </mxCell>
        <mxCell id="Dj6OytFTwjMx882FigHW-8" value="INPUT SWITCHES" style="text;html=1;strokeColor=none;fillColor=none;align=center;verticalAlign=middle;whiteSpace=wrap;rounded=0;" vertex="1" parent="1">
          <mxGeometry x="120" y="355" width="60" height="30" as="geometry" />
        </mxCell>
        <mxCell id="Dj6OytFTwjMx882FigHW-9" value="Display of votes gained by each candidate" style="text;html=1;strokeColor=none;fillColor=none;align=center;verticalAlign=middle;whiteSpace=wrap;rounded=0;" vertex="1" parent="1">
          <mxGeometry x="450" y="50" width="100" height="30" as="geometry" />
        </mxCell>
      </root>
    </mxGraphModel>
  </diagram>
</mxfile>
